<?xml version="1.0" encoding="utf-8"?>
<!-- Generator: Adobe Illustrator 15.1.0, SVG Export Plug-In . SVG Version: 6.00 Build 0)  -->
<!DOCTYPE svg PUBLIC "-//W3C//DTD SVG 1.1//EN" "http://www.w3.org/Graphics/SVG/1.1/DTD/svg11.dtd">
<svg version="1.1" id="Layer_1" xmlns="http://www.w3.org/2000/svg" xmlns:xlink="http://www.w3.org/1999/xlink" x="0px" y="0px"
	 width="1274.278px" height="265.402px" viewBox="0 0 1274.278 265.402" enable-background="new 0 0 1274.278 265.402"
	 xml:space="preserve">
<g>
	<path fill="#FFFFFF" d="M122.94,47.088c61.406,10.962,79.817,54.987,96.066,93.836c18.398,44.01,41.966,86.703,108.407,83.972
		c53.136-2.204,90.918-53.084,91.391-97.286c-7.234-48.229-44.816-97.543-114.978-97.543c-44.134,0-75.371,19.51-94.291,45.987
		c-20.294-28.292-52.919-46.378-91.636-46.378c-27.195,0-51.238,9.531-70.108,24.97C67.337,45.921,92.091,41.584,122.94,47.088z
		 M303.827,90.356c28.007,0,51.729,22.951,51.729,54.455c0,31.515-23.723,54.464-51.729,54.464
		c-28.009,0-51.729-22.949-51.729-54.464C252.097,113.307,275.818,90.356,303.827,90.356z"/>
	<path fill="#67C7C6" d="M328.093,241.172c-2.199,0.083-4.357,0.123-6.48,0.123c-78.292,0.015-103.774-60.94-117.627-94.092
		c-15.354-36.717-31.237-74.686-83.901-84.093c-37.198-6.646-68.599,1.634-93.315,24.571C21,93.032,16.296,98.574,12.545,103.656
		c-5.073,13.248-7.835,27.447-7.835,41.935c0,64.183,52.505,114.361,114.356,114.361c22.178,0,43.57-6.615,61.459-19.446
		c10.622-7.233,20.142-16.615,28.357-27.901c18.841,26.974,50.295,46.958,94.945,46.958c49.122,0,82.265-24.165,100.228-55.21
		C385.317,225.27,359.367,239.865,328.093,241.172z M118.296,84.131c33.445,0,46.289,24.104,49.003,36.949H69.282
		C72.006,108.237,84.837,84.131,118.296,84.131z M158.358,185.268c-8.941,11.274-19.447,20.229-39.293,20.229
		c-25.279,0-46.672-15.173-50.557-40.85h120.74c1.206,6.911,3.027,13.843,5.479,20.62L158.358,185.268L158.358,185.268z"/>
	<g>
		<path fill="#ED1C2B" d="M415.712,27.531l-0.688,19.676c0,0-0.057,3.23-2.01,3.461c-1.957,0.225-7.887,0.784-7.887,0.784
			l21.413,32.407c0,0,2.554,2.582-0.376,6.269c-2.929,3.702-6.324,7.876-6.324,7.876l31.968,3.561c0,0,1.769-0.295,1.2,1.531
			l-10.225,29.47l6.211,1.937l8.492-30.334c0,0,0.108-1.009,1.193-0.461c1.078,0.551,28.657,14.885,28.657,14.885l-0.636-11.084
			c0,0-0.881-2.58,2.612-3.688l36.726-14.74c0,0-6.576-4.774-6.503-5.688c0,0-1.09-0.549,0.2-2.657
			c1.287-2.114,11.062-17.388,11.062-17.388l-15.805-1.36c0,0-4.336-0.191-4.274-3.109c0.086-2.91-0.331-9.004-0.331-9.004
			l-18.513,11.413c0,0-6.611,3.065-2.891-3.521l17.479-30.566l-12.594,2.783c0,0-3.684,0.732-3.626-1.133l-4.359-25.006
			l-16.501,17.369c0,0-1.534,2.243-3.562,0.672c-2.01-1.572-9.059-10.562-9.059-10.562l-3.568,34.985c0,0-0.701,6.274-3.814,2.169
			c-3.112-4.116-9.242-20.043-9.242-20.043l-5.438,6.688c0,0-1.347,1.985-4.985,0.225C426.072,33.578,415.712,27.531,415.712,27.531
			z"/>
	</g>
	<g>
		<g>
			<path fill="#FFFFFF" d="M604.836,168.806c7.358-3.231,13.117-8.124,17.115-14.537c3.96-6.342,5.97-13.744,5.97-22.001
				c0-9.967-2.933-18.521-8.715-25.436c-5.744-6.854-13.275-11.384-22.377-13.466c-5.821-1.329-16.294-1.973-32.013-1.973h-31.95
				V236.92h22.954v-63.313h0.86l49.345,63.313h28.657l-49.631-63.688C592.985,172.59,599.641,171.105,604.836,168.806z
				 M601.545,142.486c-1.915,2.963-4.641,5.152-8.104,6.51c-3.833,1.507-10.082,2.268-18.569,2.268l-19.054-0.146v-37.194h19.575
				c10.895,0,16.057,1.134,18.467,2.083c3.169,1.253,5.676,3.308,7.673,6.286c1.966,2.954,2.962,6.294,2.962,9.933
				C604.494,136.01,603.502,139.464,601.545,142.486z"/>
			<path fill="#FFFFFF" d="M749.881,182.879c-0.137-14.769-4.244-27.311-12.199-37.274c-11.195-14.137-26.363-21.306-45.082-21.306
				c-18.225,0-32.984,7.017-43.871,20.852c-8.523,10.779-12.844,23.234-12.844,37.025c0,14.655,5.084,27.969,15.122,39.567
				c10.211,11.789,24.459,17.767,42.346,17.767c8,0,15.312-1.241,21.725-3.691c6.41-2.434,12.277-6.055,17.439-10.771
				c5.121-4.683,9.664-10.859,13.502-18.353l0.283-0.555l-19.051-10.166l-0.316,0.522c-3.703,6.138-7.133,10.583-10.186,13.213
				c-2.979,2.571-6.688,4.679-11.029,6.26c-4.355,1.601-8.893,2.407-13.488,2.407c-9.486,0-17.23-3.215-23.672-9.836
				c-5.426-5.583-8.678-12.655-9.676-21.027h91.041L749.881,182.879z M661.692,167.112c2.223-5.492,5.08-9.808,8.494-12.837
				c6.25-5.555,13.859-8.373,22.609-8.373c5.316,0,10.479,1.13,15.33,3.357c4.797,2.225,8.682,5.158,11.545,8.723
				c1.949,2.424,3.623,5.491,4.982,9.131L661.692,167.112L661.692,167.112z"/>
			<path fill="#FFFFFF" d="M858.926,137.874c-3.412-3.126-7.109-5.735-10.998-7.771c-7.395-3.853-15.73-5.805-24.768-5.805
				c-15.656,0-29.217,5.666-40.316,16.842c-11.098,11.148-16.723,24.77-16.723,40.48c0,16.009,5.57,29.795,16.559,40.975
				c11.014,11.226,24.506,16.914,40.1,16.914c8.758,0,16.961-1.843,24.379-5.478c4.119-2.012,8.07-4.626,11.768-7.777v10.665h22.131
				V126.892h-22.131V137.874L858.926,137.874z M793.452,163.921c3.227-5.671,7.59-10.122,12.973-13.226
				c5.406-3.123,11.395-4.705,17.809-4.705c9.969,0,18.465,3.494,25.254,10.392c6.824,6.901,10.281,15.66,10.281,26.032
				c0,6.813-1.535,12.998-4.566,18.387c-3.02,5.344-7.4,9.649-13.016,12.8c-5.471,3.046-11.688,4.657-17.99,4.657
				c-6.299,0-12.387-1.614-17.607-4.665c-5.436-3.176-9.84-7.693-13.092-13.429c-3.25-5.745-4.9-11.844-4.9-18.127
				C788.598,175.719,790.235,169.622,793.452,163.921z"/>
			<rect x="908.749" y="87.964" fill="#FFFFFF" width="22.299" height="148.957"/>
			<rect x="956.514" y="126.892" fill="#FFFFFF" width="22.301" height="110.027"/>
			<path fill="#FFFFFF" d="M967.618,85.363c-4.172,0-7.807,1.517-10.799,4.506c-2.986,2.975-4.502,6.619-4.502,10.836
				c0,4.157,1.516,7.774,4.5,10.745c2.98,2.989,6.615,4.506,10.801,4.506c4.248,0,7.908-1.517,10.885-4.505
				c2.992-2.979,4.51-6.594,4.51-10.746c0-4.203-1.518-7.849-4.51-10.836C975.512,86.881,971.854,85.363,967.618,85.363z"/>
			<polygon fill="#FFFFFF" points="1005.579,147.469 1053.768,147.469 996.356,236.92 1087.479,236.92 1087.479,216.243 
				1035.704,216.243 1092.538,127.87 1093.167,126.892 1005.579,126.892 			"/>
			<path fill="#FFFFFF" d="M1186.481,196.496c-3.684,6.12-7.107,10.562-10.18,13.213c-2.957,2.562-6.668,4.668-11.037,6.26
				c-4.354,1.601-8.891,2.407-13.475,2.407c-9.494,0-17.238-3.215-23.68-9.836c-5.43-5.586-8.68-12.659-9.676-21.027h91.055
				l-0.059-4.633c-0.131-14.779-4.238-27.319-12.201-37.274c-11.189-14.137-26.352-21.306-45.072-21.306
				c-18.225,0-32.984,7.017-43.871,20.852c-8.525,10.784-12.85,23.243-12.85,37.025c0,14.66,5.09,27.975,15.127,39.568
				c10.215,11.788,24.461,17.766,42.338,17.766c8.014,0,15.32-1.241,21.725-3.691c6.418-2.438,12.287-6.061,17.451-10.771
				c5.107-4.677,9.648-10.852,13.492-18.353l0.283-0.554l-19.061-10.166L1186.481,196.496z M1121.245,167.112
				c2.229-5.489,5.086-9.805,8.492-12.837c6.254-5.555,13.861-8.373,22.605-8.373c5.326,0,10.486,1.13,15.334,3.357
				c4.801,2.226,8.686,5.159,11.553,8.723c1.945,2.419,3.623,5.485,4.988,9.131L1121.245,167.112L1121.245,167.112z"/>
		</g>
		<g>
			<path fill="#67C7C6" d="M1220.577,246.744c-0.979-9.481,4.852-21.721,15.842-23.216c8.189-1.111,12.186,4.302,12.877,11.074
				c0.975,9.482-4.656,21.69-15.244,23.135C1227.463,258.628,1221.456,255.323,1220.577,246.744z M1238.504,208.367
				c-1.6,0.219-3.381-1.372-3.752-4.982c-0.09-0.905-0.158-1.583-0.057-2.518c1.799-35.726,6.189-73.874,13.297-115.125
				c0.975-6.317,5.463-9.899,10.449-10.578c5.195-0.705,10.561,2.229,11.258,9.005c0.203,2.031,0.037,4.342-0.533,6.71
				c-11.027,42.477-20.389,75.566-26.781,111.92C1241.741,206.323,1239.899,208.175,1238.504,208.367z"/>
		</g>
	</g>
</g>
</svg>
